<mxfile host="app.diagrams.net" modified="2021-02-15T15:45:27.343Z" agent="5.0 (X11; Linux x86_64) AppleWebKit/537.36 (KHTML, like Gecko) Chrome/88.0.4324.150 Safari/537.36" etag="mP5pFdtjhva5CWC-xNoq" version="14.3.2" type="github">
  <diagram id="Gea0WoHBCfBPCRHximAD" name="Page-1">
    <mxGraphModel dx="1422" dy="739" grid="1" gridSize="10" guides="1" tooltips="1" connect="1" arrows="1" fold="1" page="0" pageScale="1" pageWidth="1169" pageHeight="827" math="0" shadow="0">
      <root>
        <mxCell id="0" />
        <mxCell id="1" parent="0" />
        <mxCell id="oBplUizrpoIhTd-GWiSJ-4" value="LSTM" style="shape=cube;whiteSpace=wrap;html=1;boundedLbl=1;backgroundOutline=1;darkOpacity=0.05;darkOpacity2=0.1;" parent="1" vertex="1">
          <mxGeometry x="650" y="260" width="120" height="80" as="geometry" />
        </mxCell>
        <mxCell id="oBplUizrpoIhTd-GWiSJ-5" value="Alcala 26" style="shape=datastore;whiteSpace=wrap;html=1;" parent="1" vertex="1">
          <mxGeometry x="80" y="220" width="60" height="60" as="geometry" />
        </mxCell>
        <mxCell id="oBplUizrpoIhTd-GWiSJ-6" value="Alcala 12" style="shape=datastore;whiteSpace=wrap;html=1;" parent="1" vertex="1">
          <mxGeometry x="80" y="320" width="60" height="60" as="geometry" />
        </mxCell>
        <mxCell id="oBplUizrpoIhTd-GWiSJ-7" value="Kitti360" style="shape=datastore;whiteSpace=wrap;html=1;" parent="1" vertex="1">
          <mxGeometry x="80" y="480" width="60" height="60" as="geometry" />
        </mxCell>
        <mxCell id="oBplUizrpoIhTd-GWiSJ-8" value="Resnet" style="shape=xor;whiteSpace=wrap;html=1;" parent="1" vertex="1">
          <mxGeometry x="350" y="240" width="110" height="120" as="geometry" />
        </mxCell>
        <mxCell id="oBplUizrpoIhTd-GWiSJ-9" value="" style="shape=flexArrow;endArrow=classic;html=1;entryX=-0.018;entryY=0.017;entryDx=0;entryDy=0;entryPerimeter=0;" parent="1" target="oBplUizrpoIhTd-GWiSJ-8" edge="1">
          <mxGeometry width="50" height="50" relative="1" as="geometry">
            <mxPoint x="150" y="242" as="sourcePoint" />
            <mxPoint x="330" y="249.5" as="targetPoint" />
          </mxGeometry>
        </mxCell>
        <mxCell id="oBplUizrpoIhTd-GWiSJ-11" value="Train" style="text;html=1;strokeColor=none;fillColor=none;align=center;verticalAlign=middle;whiteSpace=wrap;rounded=0;" parent="1" vertex="1">
          <mxGeometry x="230" y="210" width="40" height="20" as="geometry" />
        </mxCell>
        <mxCell id="oBplUizrpoIhTd-GWiSJ-12" value="" style="shape=flexArrow;endArrow=classic;html=1;entryX=-0.009;entryY=0.992;entryDx=0;entryDy=0;entryPerimeter=0;" parent="1" target="oBplUizrpoIhTd-GWiSJ-8" edge="1">
          <mxGeometry width="50" height="50" relative="1" as="geometry">
            <mxPoint x="150" y="359" as="sourcePoint" />
            <mxPoint x="330" y="340" as="targetPoint" />
          </mxGeometry>
        </mxCell>
        <mxCell id="oBplUizrpoIhTd-GWiSJ-13" value="Val" style="text;html=1;strokeColor=none;fillColor=none;align=center;verticalAlign=middle;whiteSpace=wrap;rounded=0;" parent="1" vertex="1">
          <mxGeometry x="220" y="330" width="40" height="20" as="geometry" />
        </mxCell>
        <mxCell id="oBplUizrpoIhTd-GWiSJ-14" value="" style="shape=flexArrow;endArrow=classic;html=1;exitX=1;exitY=0.5;exitDx=0;exitDy=0;exitPerimeter=0;" parent="1" source="oBplUizrpoIhTd-GWiSJ-8" target="oBplUizrpoIhTd-GWiSJ-4" edge="1">
          <mxGeometry width="50" height="50" relative="1" as="geometry">
            <mxPoint x="530" y="320" as="sourcePoint" />
            <mxPoint x="580" y="270" as="targetPoint" />
          </mxGeometry>
        </mxCell>
        <mxCell id="oBplUizrpoIhTd-GWiSJ-15" value="Embeddings" style="text;html=1;strokeColor=none;fillColor=none;align=center;verticalAlign=middle;whiteSpace=wrap;rounded=0;" parent="1" vertex="1">
          <mxGeometry x="495" y="250" width="90" height="20" as="geometry" />
        </mxCell>
        <mxCell id="oBplUizrpoIhTd-GWiSJ-16" value="Resnet" style="shape=xor;whiteSpace=wrap;html=1;" parent="1" vertex="1">
          <mxGeometry x="320" y="450" width="110" height="120" as="geometry" />
        </mxCell>
        <mxCell id="oBplUizrpoIhTd-GWiSJ-17" value="" style="shape=flexArrow;endArrow=classic;html=1;entryX=0.009;entryY=0.008;entryDx=0;entryDy=0;entryPerimeter=0;" parent="1" target="oBplUizrpoIhTd-GWiSJ-16" edge="1">
          <mxGeometry width="50" height="50" relative="1" as="geometry">
            <mxPoint x="140" y="490" as="sourcePoint" />
            <mxPoint x="280" y="490" as="targetPoint" />
          </mxGeometry>
        </mxCell>
        <mxCell id="oBplUizrpoIhTd-GWiSJ-18" value="" style="shape=flexArrow;endArrow=classic;html=1;entryX=-0.009;entryY=0.983;entryDx=0;entryDy=0;entryPerimeter=0;" parent="1" target="oBplUizrpoIhTd-GWiSJ-16" edge="1">
          <mxGeometry width="50" height="50" relative="1" as="geometry">
            <mxPoint x="140" y="530" as="sourcePoint" />
            <mxPoint x="280" y="530" as="targetPoint" />
          </mxGeometry>
        </mxCell>
        <mxCell id="oBplUizrpoIhTd-GWiSJ-19" value="Train" style="text;html=1;strokeColor=none;fillColor=none;align=center;verticalAlign=middle;whiteSpace=wrap;rounded=0;" parent="1" vertex="1">
          <mxGeometry x="190" y="440" width="40" height="20" as="geometry" />
        </mxCell>
        <mxCell id="oBplUizrpoIhTd-GWiSJ-20" value="Val" style="text;html=1;strokeColor=none;fillColor=none;align=center;verticalAlign=middle;whiteSpace=wrap;rounded=0;" parent="1" vertex="1">
          <mxGeometry x="190" y="580" width="40" height="20" as="geometry" />
        </mxCell>
        <mxCell id="oBplUizrpoIhTd-GWiSJ-21" value="" style="shape=flexArrow;endArrow=classic;html=1;exitX=1;exitY=0.5;exitDx=0;exitDy=0;exitPerimeter=0;" parent="1" edge="1">
          <mxGeometry width="50" height="50" relative="1" as="geometry">
            <mxPoint x="430" y="509.5" as="sourcePoint" />
            <mxPoint x="620" y="509.5" as="targetPoint" />
          </mxGeometry>
        </mxCell>
        <mxCell id="oBplUizrpoIhTd-GWiSJ-22" value="LSTM" style="shape=cube;whiteSpace=wrap;html=1;boundedLbl=1;backgroundOutline=1;darkOpacity=0.05;darkOpacity2=0.1;" parent="1" vertex="1">
          <mxGeometry x="620" y="470" width="120" height="80" as="geometry" />
        </mxCell>
        <mxCell id="oBplUizrpoIhTd-GWiSJ-23" value="Embeddings" style="text;html=1;strokeColor=none;fillColor=none;align=center;verticalAlign=middle;whiteSpace=wrap;rounded=0;" parent="1" vertex="1">
          <mxGeometry x="470" y="460" width="90" height="20" as="geometry" />
        </mxCell>
        <mxCell id="oBplUizrpoIhTd-GWiSJ-24" value="" style="shape=flexArrow;endArrow=classic;html=1;" parent="1" edge="1">
          <mxGeometry width="50" height="50" relative="1" as="geometry">
            <mxPoint x="910" y="280" as="sourcePoint" />
            <mxPoint x="770" y="280" as="targetPoint" />
          </mxGeometry>
        </mxCell>
        <mxCell id="oBplUizrpoIhTd-GWiSJ-25" value="" style="shape=flexArrow;endArrow=classic;html=1;" parent="1" edge="1">
          <mxGeometry width="50" height="50" relative="1" as="geometry">
            <mxPoint x="910" y="339.5" as="sourcePoint" />
            <mxPoint x="770" y="339.5" as="targetPoint" />
          </mxGeometry>
        </mxCell>
        <mxCell id="oBplUizrpoIhTd-GWiSJ-26" value="" style="shape=flexArrow;endArrow=classic;html=1;entryX=0;entryY=0;entryDx=70;entryDy=80;entryPerimeter=0;width=6;endSize=16.18;" parent="1" target="oBplUizrpoIhTd-GWiSJ-4" edge="1">
          <mxGeometry width="50" height="50" relative="1" as="geometry">
            <mxPoint x="810" y="410" as="sourcePoint" />
            <mxPoint x="770" y="479" as="targetPoint" />
          </mxGeometry>
        </mxCell>
        <mxCell id="oBplUizrpoIhTd-GWiSJ-27" value="Alcala 26" style="shape=datastore;whiteSpace=wrap;html=1;" parent="1" vertex="1">
          <mxGeometry x="910" y="230" width="60" height="60" as="geometry" />
        </mxCell>
        <mxCell id="oBplUizrpoIhTd-GWiSJ-28" value="Alcala 12" style="shape=datastore;whiteSpace=wrap;html=1;" parent="1" vertex="1">
          <mxGeometry x="910" y="290" width="60" height="60" as="geometry" />
        </mxCell>
        <mxCell id="oBplUizrpoIhTd-GWiSJ-29" value="Train" style="text;html=1;strokeColor=none;fillColor=none;align=center;verticalAlign=middle;whiteSpace=wrap;rounded=0;" parent="1" vertex="1">
          <mxGeometry x="830" y="240" width="40" height="20" as="geometry" />
        </mxCell>
        <mxCell id="oBplUizrpoIhTd-GWiSJ-30" value="Val" style="text;html=1;strokeColor=none;fillColor=none;align=center;verticalAlign=middle;whiteSpace=wrap;rounded=0;" parent="1" vertex="1">
          <mxGeometry x="830" y="300" width="40" height="20" as="geometry" />
        </mxCell>
        <mxCell id="oBplUizrpoIhTd-GWiSJ-31" value="Test ?" style="text;html=1;strokeColor=none;fillColor=none;align=center;verticalAlign=middle;whiteSpace=wrap;rounded=0;" parent="1" vertex="1">
          <mxGeometry x="810" y="391" width="90" height="46" as="geometry" />
        </mxCell>
        <mxCell id="oBplUizrpoIhTd-GWiSJ-32" value="Kitti360" style="shape=datastore;whiteSpace=wrap;html=1;" parent="1" vertex="1">
          <mxGeometry x="880" y="490" width="60" height="60" as="geometry" />
        </mxCell>
        <mxCell id="oBplUizrpoIhTd-GWiSJ-34" value="" style="shape=flexArrow;endArrow=classic;html=1;" parent="1" edge="1">
          <mxGeometry width="50" height="50" relative="1" as="geometry">
            <mxPoint x="880" y="490" as="sourcePoint" />
            <mxPoint x="740" y="490" as="targetPoint" />
          </mxGeometry>
        </mxCell>
        <mxCell id="oBplUizrpoIhTd-GWiSJ-35" value="" style="shape=flexArrow;endArrow=classic;html=1;" parent="1" edge="1">
          <mxGeometry width="50" height="50" relative="1" as="geometry">
            <mxPoint x="880" y="520" as="sourcePoint" />
            <mxPoint x="740" y="520" as="targetPoint" />
          </mxGeometry>
        </mxCell>
        <mxCell id="oBplUizrpoIhTd-GWiSJ-36" value="" style="shape=flexArrow;endArrow=classic;html=1;" parent="1" edge="1">
          <mxGeometry width="50" height="50" relative="1" as="geometry">
            <mxPoint x="880" y="550" as="sourcePoint" />
            <mxPoint x="740" y="550" as="targetPoint" />
          </mxGeometry>
        </mxCell>
        <mxCell id="oBplUizrpoIhTd-GWiSJ-37" value="Train&lt;br&gt;Val&lt;br&gt;Test" style="text;html=1;strokeColor=none;fillColor=none;align=center;verticalAlign=middle;whiteSpace=wrap;rounded=0;" parent="1" vertex="1">
          <mxGeometry x="920" y="470" width="120" height="100" as="geometry" />
        </mxCell>
        <mxCell id="oBplUizrpoIhTd-GWiSJ-38" value="" style="shape=flexArrow;endArrow=classic;html=1;entryX=0.5;entryY=1;entryDx=0;entryDy=0;" parent="1" target="oBplUizrpoIhTd-GWiSJ-7" edge="1">
          <mxGeometry width="50" height="50" relative="1" as="geometry">
            <mxPoint x="110" y="650" as="sourcePoint" />
            <mxPoint x="130" y="600" as="targetPoint" />
          </mxGeometry>
        </mxCell>
        <mxCell id="oBplUizrpoIhTd-GWiSJ-39" value="&lt;font style=&quot;font-size: 18px&quot;&gt;&lt;b&gt;New Homography&lt;/b&gt;&lt;/font&gt;" style="text;html=1;strokeColor=none;fillColor=none;align=center;verticalAlign=middle;whiteSpace=wrap;rounded=0;" parent="1" vertex="1">
          <mxGeometry x="50" y="650" width="120" height="90" as="geometry" />
        </mxCell>
        <mxCell id="oBplUizrpoIhTd-GWiSJ-40" value="" style="shape=flexArrow;endArrow=classic;html=1;" parent="1" edge="1">
          <mxGeometry width="50" height="50" relative="1" as="geometry">
            <mxPoint x="340" y="700" as="sourcePoint" />
            <mxPoint x="340" y="580" as="targetPoint" />
          </mxGeometry>
        </mxCell>
        <mxCell id="oBplUizrpoIhTd-GWiSJ-41" value="&lt;b&gt;Kevin&lt;/b&gt;" style="text;html=1;strokeColor=none;fillColor=none;align=center;verticalAlign=middle;whiteSpace=wrap;rounded=0;" parent="1" vertex="1">
          <mxGeometry x="320" y="720" width="40" height="20" as="geometry" />
        </mxCell>
        <mxCell id="oBplUizrpoIhTd-GWiSJ-42" value="" style="shape=flexArrow;endArrow=classic;html=1;" parent="1" edge="1">
          <mxGeometry width="50" height="50" relative="1" as="geometry">
            <mxPoint x="404.5" y="700" as="sourcePoint" />
            <mxPoint x="404.5" y="580" as="targetPoint" />
          </mxGeometry>
        </mxCell>
        <mxCell id="oBplUizrpoIhTd-GWiSJ-43" value="&lt;b&gt;Ours&lt;/b&gt;" style="text;html=1;strokeColor=none;fillColor=none;align=center;verticalAlign=middle;whiteSpace=wrap;rounded=0;" parent="1" vertex="1">
          <mxGeometry x="385" y="720" width="40" height="20" as="geometry" />
        </mxCell>
        <mxCell id="oBplUizrpoIhTd-GWiSJ-45" value="" style="shape=flexArrow;endArrow=classic;html=1;" parent="1" edge="1">
          <mxGeometry width="50" height="50" relative="1" as="geometry">
            <mxPoint x="360" y="110" as="sourcePoint" />
            <mxPoint x="360" y="230" as="targetPoint" />
          </mxGeometry>
        </mxCell>
        <mxCell id="oBplUizrpoIhTd-GWiSJ-46" value="" style="shape=flexArrow;endArrow=classic;html=1;" parent="1" edge="1">
          <mxGeometry width="50" height="50" relative="1" as="geometry">
            <mxPoint x="425" y="110" as="sourcePoint" />
            <mxPoint x="425" y="230" as="targetPoint" />
          </mxGeometry>
        </mxCell>
        <mxCell id="oBplUizrpoIhTd-GWiSJ-47" value="&lt;b&gt;Kevin&lt;/b&gt;" style="text;html=1;strokeColor=none;fillColor=none;align=center;verticalAlign=middle;whiteSpace=wrap;rounded=0;" parent="1" vertex="1">
          <mxGeometry x="340" y="70" width="40" height="20" as="geometry" />
        </mxCell>
        <mxCell id="oBplUizrpoIhTd-GWiSJ-48" value="&lt;b&gt;Ours&lt;/b&gt;" style="text;html=1;strokeColor=none;fillColor=none;align=center;verticalAlign=middle;whiteSpace=wrap;rounded=0;" parent="1" vertex="1">
          <mxGeometry x="405" y="70" width="40" height="20" as="geometry" />
        </mxCell>
        <mxCell id="kftFr6leslc9ctkXowQM-1" value="LSTM" style="shape=cube;whiteSpace=wrap;html=1;boundedLbl=1;backgroundOutline=1;darkOpacity=0.05;darkOpacity2=0.1;" vertex="1" parent="1">
          <mxGeometry x="1840" y="241" width="120" height="80" as="geometry" />
        </mxCell>
        <mxCell id="kftFr6leslc9ctkXowQM-2" value="Alcala 26" style="shape=datastore;whiteSpace=wrap;html=1;" vertex="1" parent="1">
          <mxGeometry x="1270" y="201" width="60" height="60" as="geometry" />
        </mxCell>
        <mxCell id="kftFr6leslc9ctkXowQM-3" value="Alcala 12" style="shape=datastore;whiteSpace=wrap;html=1;" vertex="1" parent="1">
          <mxGeometry x="2100" y="210" width="60" height="60" as="geometry" />
        </mxCell>
        <mxCell id="kftFr6leslc9ctkXowQM-4" value="Resnet" style="shape=xor;whiteSpace=wrap;html=1;" vertex="1" parent="1">
          <mxGeometry x="1540" y="221" width="110" height="120" as="geometry" />
        </mxCell>
        <mxCell id="kftFr6leslc9ctkXowQM-5" value="" style="shape=flexArrow;endArrow=classic;html=1;entryX=-0.018;entryY=0.017;entryDx=0;entryDy=0;entryPerimeter=0;" edge="1" parent="1" target="kftFr6leslc9ctkXowQM-4">
          <mxGeometry width="50" height="50" relative="1" as="geometry">
            <mxPoint x="1340" y="223" as="sourcePoint" />
            <mxPoint x="1520" y="230.5" as="targetPoint" />
          </mxGeometry>
        </mxCell>
        <mxCell id="kftFr6leslc9ctkXowQM-6" value="Train" style="text;html=1;strokeColor=none;fillColor=none;align=center;verticalAlign=middle;whiteSpace=wrap;rounded=0;" vertex="1" parent="1">
          <mxGeometry x="1420" y="191" width="40" height="20" as="geometry" />
        </mxCell>
        <mxCell id="kftFr6leslc9ctkXowQM-7" value="" style="shape=flexArrow;endArrow=classic;html=1;entryX=-0.009;entryY=0.992;entryDx=0;entryDy=0;entryPerimeter=0;" edge="1" parent="1" target="kftFr6leslc9ctkXowQM-4">
          <mxGeometry width="50" height="50" relative="1" as="geometry">
            <mxPoint x="1340" y="340" as="sourcePoint" />
            <mxPoint x="1520" y="321" as="targetPoint" />
          </mxGeometry>
        </mxCell>
        <mxCell id="kftFr6leslc9ctkXowQM-8" value="Val" style="text;html=1;strokeColor=none;fillColor=none;align=center;verticalAlign=middle;whiteSpace=wrap;rounded=0;" vertex="1" parent="1">
          <mxGeometry x="1410" y="311" width="40" height="20" as="geometry" />
        </mxCell>
        <mxCell id="kftFr6leslc9ctkXowQM-9" value="" style="shape=flexArrow;endArrow=classic;html=1;exitX=1;exitY=0.5;exitDx=0;exitDy=0;exitPerimeter=0;" edge="1" parent="1" source="kftFr6leslc9ctkXowQM-4" target="kftFr6leslc9ctkXowQM-1">
          <mxGeometry width="50" height="50" relative="1" as="geometry">
            <mxPoint x="1720" y="301" as="sourcePoint" />
            <mxPoint x="1770" y="251" as="targetPoint" />
          </mxGeometry>
        </mxCell>
        <mxCell id="kftFr6leslc9ctkXowQM-10" value="Embeddings" style="text;html=1;strokeColor=none;fillColor=none;align=center;verticalAlign=middle;whiteSpace=wrap;rounded=0;" vertex="1" parent="1">
          <mxGeometry x="1685" y="231" width="90" height="20" as="geometry" />
        </mxCell>
        <mxCell id="kftFr6leslc9ctkXowQM-11" value="" style="shape=flexArrow;endArrow=classic;html=1;" edge="1" parent="1">
          <mxGeometry width="50" height="50" relative="1" as="geometry">
            <mxPoint x="2100" y="261" as="sourcePoint" />
            <mxPoint x="1960" y="261" as="targetPoint" />
          </mxGeometry>
        </mxCell>
        <mxCell id="kftFr6leslc9ctkXowQM-12" value="" style="shape=flexArrow;endArrow=classic;html=1;" edge="1" parent="1">
          <mxGeometry width="50" height="50" relative="1" as="geometry">
            <mxPoint x="2100" y="320.5" as="sourcePoint" />
            <mxPoint x="1960" y="320.5" as="targetPoint" />
          </mxGeometry>
        </mxCell>
        <mxCell id="kftFr6leslc9ctkXowQM-13" value="" style="shape=flexArrow;endArrow=classic;html=1;entryX=0;entryY=0;entryDx=70;entryDy=80;entryPerimeter=0;width=6;endSize=16.18;" edge="1" parent="1" target="kftFr6leslc9ctkXowQM-1">
          <mxGeometry width="50" height="50" relative="1" as="geometry">
            <mxPoint x="2000" y="391" as="sourcePoint" />
            <mxPoint x="1960" y="460" as="targetPoint" />
          </mxGeometry>
        </mxCell>
        <mxCell id="kftFr6leslc9ctkXowQM-15" value="Alcala 12" style="shape=datastore;whiteSpace=wrap;html=1;" vertex="1" parent="1">
          <mxGeometry x="2100" y="271" width="60" height="60" as="geometry" />
        </mxCell>
        <mxCell id="kftFr6leslc9ctkXowQM-16" value="Train" style="text;html=1;strokeColor=none;fillColor=none;align=center;verticalAlign=middle;whiteSpace=wrap;rounded=0;" vertex="1" parent="1">
          <mxGeometry x="2020" y="221" width="40" height="20" as="geometry" />
        </mxCell>
        <mxCell id="kftFr6leslc9ctkXowQM-17" value="Val" style="text;html=1;strokeColor=none;fillColor=none;align=center;verticalAlign=middle;whiteSpace=wrap;rounded=0;" vertex="1" parent="1">
          <mxGeometry x="2020" y="281" width="40" height="20" as="geometry" />
        </mxCell>
        <mxCell id="kftFr6leslc9ctkXowQM-18" value="" style="shape=flexArrow;endArrow=classic;html=1;" edge="1" parent="1">
          <mxGeometry width="50" height="50" relative="1" as="geometry">
            <mxPoint x="1550" y="91" as="sourcePoint" />
            <mxPoint x="1550" y="211" as="targetPoint" />
          </mxGeometry>
        </mxCell>
        <mxCell id="kftFr6leslc9ctkXowQM-19" value="" style="shape=flexArrow;endArrow=classic;html=1;" edge="1" parent="1">
          <mxGeometry width="50" height="50" relative="1" as="geometry">
            <mxPoint x="1615" y="91" as="sourcePoint" />
            <mxPoint x="1615" y="211" as="targetPoint" />
          </mxGeometry>
        </mxCell>
        <mxCell id="kftFr6leslc9ctkXowQM-20" value="&lt;b&gt;Kevin&lt;/b&gt;" style="text;html=1;strokeColor=none;fillColor=none;align=center;verticalAlign=middle;whiteSpace=wrap;rounded=0;" vertex="1" parent="1">
          <mxGeometry x="1530" y="51" width="40" height="20" as="geometry" />
        </mxCell>
        <mxCell id="kftFr6leslc9ctkXowQM-21" value="&lt;b&gt;Ours&lt;/b&gt;" style="text;html=1;strokeColor=none;fillColor=none;align=center;verticalAlign=middle;whiteSpace=wrap;rounded=0;" vertex="1" parent="1">
          <mxGeometry x="1595" y="51" width="40" height="20" as="geometry" />
        </mxCell>
        <mxCell id="kftFr6leslc9ctkXowQM-22" value="Alcala 26" style="shape=datastore;whiteSpace=wrap;html=1;" vertex="1" parent="1">
          <mxGeometry x="1270" y="310" width="60" height="60" as="geometry" />
        </mxCell>
        <mxCell id="kftFr6leslc9ctkXowQM-23" value="&lt;font style=&quot;font-size: 30px&quot;&gt;?&lt;/font&gt;" style="text;html=1;strokeColor=none;fillColor=none;align=center;verticalAlign=middle;whiteSpace=wrap;rounded=0;strokeWidth=8;" vertex="1" parent="1">
          <mxGeometry x="1990" y="391" width="40" height="20" as="geometry" />
        </mxCell>
      </root>
    </mxGraphModel>
  </diagram>
</mxfile>
